<svg height="20" width="22" xmlns="http://www.w3.org/2000/svg" aria-label="delivery" class="" name="delivery"><path d="M9.225 0H9.22a.375.375 0 0 0-.038.008.375.375 0 0 0-.092.027L.317 3.838A.383.383 0 0 0 0 4.221v11.54a.39.39 0 0 0 .007.078c.023.13.11.24.23.29l8.852 3.838a.375.375 0 0 0 .178.03h.024a.375.375 0 0 0 .112-.028l4.813-2.087a4.138 4.138 0 0 0 6.564.88c1.627-1.649 1.626-4.334 0-5.984a4.126 4.126 0 0 0-2.288-1.18V4.226a.383.383 0 0 0-.321-.385L9.403.038a.375.375 0 0 0-.11-.028h-.068V0zm.021.802l1.86.805-7.882 3.418a.376.376 0 0 0-.022.01l-1.86-.806L9.246.802zm2.824 1.224l2.257.98-8.03 3.48a.386.386 0 0 0-.228.47v4.079l-.822-1.25a.376.376 0 0 0-.486-.13l-.968.49v-4.53l8.277-3.589zm3.219 1.396l1.86.807-7.903 3.428-1.86-.807 7.882-3.418a.378.378 0 0 0 .02-.01zM.759 4.813l2.276.987v4.967c0 .134.068.257.18.327.11.07.25.077.368.017l1.218-.617 1.311 1.993a.378.378 0 0 0 .556.14.387.387 0 0 0 .16-.365V7.446l2.039.883v10.703L.759 15.516V4.813zm16.974 0v6.728a4.13 4.13 0 0 0-2.856 1.232 4.22 4.22 0 0 0-1.112 2.043h-.003l-.93.404-2.212.958a.387.387 0 0 0-.079.661c.108.083.252.1.376.047l2.213-.96.529-.229c-.008.5.074 1.002.24 1.479l-4.274 1.853V8.326l8.108-3.515v.002zm.095 7.49c.874 0 1.747.338 2.416 1.017a3.494 3.494 0 0 1 0 4.9 3.378 3.378 0 0 1-4.831 0 3.49 3.49 0 0 1 0-4.897 3.382 3.382 0 0 1 2.415-1.017v-.003zm0 .772c-1.131 0-2.047.959-2.047 2.12 0 .705.473 1.4.903 2.02.431.62.86 1.113.86 1.113a.377.377 0 0 0 .569 0s.428-.493.86-1.113c.43-.62.903-1.315.903-2.02 0-1.161-.916-2.12-2.048-2.12zm-4.86.578a.375.375 0 0 0-.136.033l-2.212.96a.387.387 0 0 0-.08.663c.108.082.253.1.377.045l2.213-.96a.386.386 0 0 0-.162-.74zm4.86.19c.711 0 1.29.596 1.29 1.351 0 .253-.363.997-.767 1.578-.26.375-.37.494-.523.679-.152-.185-.263-.303-.524-.68-.404-.58-.765-1.324-.765-1.577 0-.755.578-1.35 1.29-1.35zm0 .77c-.21 0-.38.172-.38.385 0 .212.17.384.38.384s.38-.172.38-.384a.382.382 0 0 0-.38-.385z" fill="#4A4A4A" fill-rule="nonzero"></path></svg>