<svg height="20" width="21" xmlns="http://www.w3.org/2000/svg" aria-label="order-review" class="" name="order-review"><path d="M17.274 2.417V.647A.653.653 0 0 0 16.615 0H.66A.653.653 0 0 0 0 .647v14.468c0 .358.295.648.659.648h9.623c.537 2.53 2.843 4.315 5.47 4.234 2.628-.08 4.817-2.004 5.192-4.561.375-2.558-1.173-5.01-3.67-5.817V2.417zM1.317 1.295h14.64v1.122H1.317V1.295zm18.37 13.378c0 1.63-.998 3.1-2.529 3.723a4.15 4.15 0 0 1-4.467-.872 3.979 3.979 0 0 1-.89-4.39c.635-1.506 2.13-2.488 3.787-2.488 2.263.003 4.096 1.805 4.099 4.029v-.002zm-3.732-5.308c-.123 0-.246-.013-.37-.013a5.46 5.46 0 0 0-2.359.533h-4.83v1.294h3.113a5.248 5.248 0 0 0-1.33 3.289H1.317V3.71h14.64l-.002 5.654zM8.41 5.73v1.295h6.708V5.73H8.41zm-2.033-.25L5.673 4.8 4.062 6.416l-.825-.798-.694.692 1.532 1.48 2.302-2.308zm-.383 3.412L4.817 10.05 3.642 8.893l-.66.649 1.178 1.157-1.178 1.155.66.649 1.175-1.158 1.177 1.158.66-.649L5.477 10.7l1.177-1.157-.66-.649zm8.936 2.977h1.317v3.67H14.93v-3.67zm0 4.315h1.317v1.513H14.93v-1.513z" fill="#4A4A4A" fill-rule="nonzero"></path></svg>